# xmcd
#
# Track frame offsets:
#	150
#	15357
#	30117
#	48182
#	66329
#	92304
#	109032
#	126933
#	139739
#	161217
#	172798
#
# Disc length: 2631 seconds
#
# Revision: 0
# Processed by: cddbd v1.5.2PL0 Copyright (c) Steve Scherf et al.
# Submitted via: EasyCDDAExtractor 9.0.0.1
#
DISCID=7c0a450b
DTITLE=Gatos Bizcos - I Can't Believe My Eyes
DYEAR=2010
DGENRE=Blues
TTITLE0=Let's have some fun
TTITLE1=Little Walter song
TTITLE2=I can't believe my eyes
TTITLE3=Backwards blues
TTITLE4=Nobody knows you when you're down and out
TTITLE5=Blues for P
TTITLE6=We like the boogie
TTITLE7=Orange colour sky
TTITLE8=That's when I know
TTITLE9=Topo rojo
TTITLE10=Goin' home
EXTD=
EXTT0=
EXTT1=
EXTT2=
EXTT3=
EXTT4=
EXTT5=
EXTT6=
EXTT7=
EXTT8=
EXTT9=
EXTT10=
PLAYORDER=
